<?xml version="1.0" standalone="no"?>
<!DOCTYPE svg PUBLIC "-//W3C//DTD SVG 20010904//EN"
 "http://www.w3.org/TR/2001/REC-SVG-20010904/DTD/svg10.dtd">
<svg version="1.0" xmlns="http://www.w3.org/2000/svg"
 width="700.000000pt" height="700.000000pt" viewBox="0 0 700.000000 700.000000"
 preserveAspectRatio="xMidYMid meet">
<metadata>
Created by potrace 1.14, written by Peter Selinger 2001-2017
</metadata>
<g transform="translate(0.000000,700.000000) scale(0.100000,-0.100000)"
fill="#000000" stroke="none">
<path d="M1435 6904 c-368 -46 -656 -184 -905 -433 -223 -224 -359 -480 -416
-786 -18 -96 -19 -191 -19 -2185 0 -1994 1 -2089 19 -2185 57 -305 194 -565
415 -785 222 -222 483 -360 786 -416 96 -18 193 -19 2185 -19 1994 0 2089 1
2185 19 219 41 454 143 625 270 118 89 273 252 353 371 111 169 181 333 229
544 l22 96 4 2035 c2 1503 0 2064 -8 2145 -56 522 -375 970 -851 1194 -116 55
-199 82 -339 114 l-95 21 -2080 2 c-1144 1 -2093 0 -2110 -2z m3762 -2426 c84
-84 153 -155 153 -159 0 -6 -2238 -2193 -2249 -2196 -3 -1 -329 318 -724 710
l-718 712 163 152 163 153 556 -557 c353 -352 562 -554 570 -550 8 3 443 429
967 946 525 518 957 941 960 941 4 0 75 -69 159 -152z"/>
</g>
</svg>
