<?xml version="1.0" encoding="utf-8"?>
<!-- Generator: Adobe Illustrator 25.2.3, SVG Export Plug-In . SVG Version: 6.00 Build 0)  -->
<svg version="1.1" id="Livello_1" xmlns="http://www.w3.org/2000/svg" xmlns:xlink="http://www.w3.org/1999/xlink" x="0px" y="0px"
	 viewBox="0 0 20 20" style="enable-background:new 0 0 20 20;" xml:space="preserve">
<g id="Symbols">
	<g id="Icon-_x2F_-Sidebar-_x2F_-passive-_x2F_-dashboard">
		<g id="icone-mockup-04" transform="translate(-0.000000, -0.000000)">
			<path id="Path" d="M6.4,8.4H2c-1.1,0-2-0.9-2-2V2c0-1.1,0.9-2,2-2h4.4c1.1,0,2,0.9,2,2v4.4C8.4,7.5,7.5,8.4,6.4,8.4z"/>
			<path id="Path_1_" d="M6.4,20H2c-1.1,0-2-0.9-2-2v-4.4c0-1.1,0.9-2,2-2h4.4c1.1,0,2,0.9,2,2V18C8.4,19.1,7.5,20,6.4,20z"/>
			<path id="Path_2_" d="M18,20h-4.4c-1.1,0-2-0.9-2-2v-4.4c0-1.1,0.9-2,2-2H18c1.1,0,2,0.9,2,2V18C20,19.1,19.1,20,18,20z"/>
			<path id="Path_3_" d="M18,8.4h-4.4c-1.1,0-2-0.9-2-2V2c0-1.1,0.9-2,2-2H18c1.1,0,2,0.9,2,2v4.4C20,7.5,19.1,8.4,18,8.4z"/>
		</g>
	</g>
</g>
</svg>
